<svg width="10" height="20" viewBox="0 0 10 20" fill="none" xmlns="http://www.w3.org/2000/svg">
<path d="M0.30645 10.652H2.38915V19.6774C2.38915 19.8556 2.52631 20 2.6956 20H6.22689C6.39617 20 6.53334 19.8556 6.53334 19.6774V10.6945H8.92757C9.08325 10.6945 9.21422 10.5715 9.232 10.4088L9.59563 7.08606C9.60562 6.99464 9.5781 6.9031 9.52 6.83452C9.46184 6.76587 9.37861 6.72658 9.29127 6.72658H6.53346V4.64374C6.53346 4.01587 6.85462 3.69748 7.48811 3.69748C7.57839 3.69748 9.29127 3.69748 9.29127 3.69748C9.46055 3.69748 9.59772 3.55303 9.59772 3.3749V0.324968C9.59772 0.146774 9.46055 0.0023871 9.29127 0.0023871H6.80626C6.78873 0.00148387 6.74981 0 6.69245 0C6.26127 0 4.76254 0.0890967 3.57867 1.23555C2.26694 2.506 2.44927 4.02716 2.49285 4.2909V6.72652H0.30645C0.137167 6.72652 0 6.8709 0 7.0491V10.3294C0 10.5075 0.137167 10.652 0.30645 10.652Z" fill="black"/>
</svg>
