<svg width="20" height="20" viewBox="0 0 20 20" fill="none" xmlns="http://www.w3.org/2000/svg">
<path d="M2.568 0H17.4332C18.8455 0 20 1.15503 20 2.56741V17.4338C20 18.8458 18.8455 20 17.4332 20H2.568C1.15573 20 0 18.8457 0 17.4338V2.56741C0 1.15503 1.15573 0 2.568 0ZM14.5697 2.22131C14.0739 2.22131 13.6694 2.62741 13.6694 3.12305V5.27749C13.6694 5.77333 14.0739 6.17849 14.5697 6.17849H16.8299C17.325 6.17849 17.7303 5.77333 17.7303 5.27749V3.12305C17.7303 2.62741 17.325 2.22131 16.8299 2.22131H14.5697ZM17.7389 8.45774H15.9792C16.1461 9.00279 16.2365 9.57757 16.2365 10.1751C16.2365 13.5009 13.4521 16.1983 10.0188 16.1983C6.58633 16.1983 3.80187 13.5009 3.80187 10.1751C3.80187 9.57757 3.8932 9.00279 4.05927 8.45774H2.22333V16.9072C2.22333 17.3448 2.5806 17.7007 3.01773 17.7007H16.9449C17.3824 17.7007 17.7389 17.3448 17.7389 16.9072V8.45774ZM10.0189 6.06488C7.80153 6.06488 6.00287 7.80689 6.00287 9.95773C6.00287 12.1064 7.80153 13.8497 10.0189 13.8497C12.2374 13.8497 14.0361 12.1064 14.0361 9.95773C14.0361 7.80682 12.2374 6.06488 10.0189 6.06488Z" fill="black"/>
</svg>
