<svg width="20" height="20" viewBox="0 0 20 20" fill="none" xmlns="http://www.w3.org/2000/svg">
<path d="M0.353259 9.58993L4.96167 11.5654L6.7454 18.154C6.85953 18.576 7.3088 18.732 7.607 18.4519L10.1758 16.0467C10.4451 15.7948 10.8286 15.7822 11.11 16.0168L15.7432 19.8803C16.0622 20.1466 16.5141 19.9458 16.5941 19.5031L19.9882 0.751873C20.0756 0.268259 19.6618 -0.135187 19.2609 0.0429145L0.347859 8.42278C-0.118874 8.62951 -0.114808 9.38847 0.353259 9.58993ZM6.45793 10.5138L15.4645 4.14268C15.6263 4.02852 15.7929 4.2799 15.6539 4.42798L8.22087 12.3637C7.9596 12.643 7.79107 13.0168 7.74334 13.4225L7.49014 15.5777C7.4566 15.8654 7.10467 15.894 7.03553 15.6155L6.06173 11.6856C5.9502 11.2373 6.11273 10.7585 6.45793 10.5138Z" fill="black"/>
</svg>
